<svg width="1280" height="720" viewBox="0 0 1280 720" fill="none" xmlns="http://www.w3.org/2000/svg">
  <rect width="1280" height="720" fill="#EEF2F7"/>

  <rect x="90" y="65" width="1100" height="590" rx="22" fill="#FFFFFF" stroke="#D8E0EA"/>
  <rect x="90" y="65" width="1100" height="100" rx="22" fill="#1C2541"/>
  <text x="145" y="125" fill="#EAF4F4" font-family="Segoe UI, Arial, sans-serif" font-size="34" font-weight="700">Portal de Servicios</text>
  <text x="145" y="150" fill="#A5C5CB" font-family="Segoe UI, Arial, sans-serif" font-size="16">Acceso rapido a tus aplicaciones locales</text>

  <rect x="130" y="195" width="1020" height="125" rx="14" fill="#F7FAFC" stroke="#DFE8F1"/>
  <text x="155" y="228" fill="#334155" font-family="Segoe UI, Arial, sans-serif" font-size="19" font-weight="600">Agregar Nuevo Servicio</text>

  <rect x="155" y="245" width="260" height="46" rx="8" fill="#FFFFFF" stroke="#CBD5E1"/>
  <rect x="430" y="245" width="230" height="46" rx="8" fill="#FFFFFF" stroke="#CBD5E1"/>
  <rect x="675" y="245" width="150" height="46" rx="8" fill="#FFFFFF" stroke="#CBD5E1"/>
  <rect x="840" y="245" width="285" height="46" rx="8" fill="#5BC0BE"/>

  <text x="173" y="274" fill="#64748B" font-family="Segoe UI, Arial, sans-serif" font-size="14">Nombre del servicio</text>
  <text x="448" y="274" fill="#64748B" font-family="Segoe UI, Arial, sans-serif" font-size="14">IP</text>
  <text x="694" y="274" fill="#64748B" font-family="Segoe UI, Arial, sans-serif" font-size="14">Puerto</text>
  <text x="914" y="274" fill="#073B3A" font-family="Segoe UI, Arial, sans-serif" font-size="14" font-weight="700">+ Agregar Servicio</text>

  <rect x="130" y="345" width="320" height="250" rx="14" fill="#FFFFFF" stroke="#DCE4EE"/>
  <rect x="480" y="345" width="320" height="250" rx="14" fill="#FFFFFF" stroke="#DCE4EE"/>
  <rect x="830" y="345" width="320" height="250" rx="14" fill="#FFFFFF" stroke="#DCE4EE"/>

  <text x="156" y="380" fill="#1E3A8A" font-family="Segoe UI, Arial, sans-serif" font-size="23" font-weight="700">Odoo 18</text>
  <text x="156" y="413" fill="#334155" font-family="Segoe UI, Arial, sans-serif" font-size="14">IP: localhost</text>
  <text x="156" y="438" fill="#334155" font-family="Segoe UI, Arial, sans-serif" font-size="14">Puerto: 8069</text>
  <rect x="156" y="528" width="134" height="38" rx="8" fill="#3B82F6"/>
  <rect x="300" y="528" width="126" height="38" rx="8" fill="#EF4444"/>
  <text x="191" y="552" fill="#FFFFFF" font-family="Segoe UI, Arial, sans-serif" font-size="13" font-weight="700">Acceder</text>
  <text x="340" y="552" fill="#FFFFFF" font-family="Segoe UI, Arial, sans-serif" font-size="13" font-weight="700">Eliminar</text>

  <text x="506" y="380" fill="#1E3A8A" font-family="Segoe UI, Arial, sans-serif" font-size="23" font-weight="700">Odoo 17</text>
  <text x="506" y="413" fill="#334155" font-family="Segoe UI, Arial, sans-serif" font-size="14">IP: localhost</text>
  <text x="506" y="438" fill="#334155" font-family="Segoe UI, Arial, sans-serif" font-size="14">Puerto: 8070</text>
  <rect x="506" y="528" width="134" height="38" rx="8" fill="#3B82F6"/>
  <rect x="650" y="528" width="126" height="38" rx="8" fill="#EF4444"/>
  <text x="541" y="552" fill="#FFFFFF" font-family="Segoe UI, Arial, sans-serif" font-size="13" font-weight="700">Acceder</text>
  <text x="690" y="552" fill="#FFFFFF" font-family="Segoe UI, Arial, sans-serif" font-size="13" font-weight="700">Eliminar</text>

  <text x="856" y="380" fill="#1E3A8A" font-family="Segoe UI, Arial, sans-serif" font-size="23" font-weight="700">App Comisiones</text>
  <text x="856" y="413" fill="#334155" font-family="Segoe UI, Arial, sans-serif" font-size="14">IP: localhost</text>
  <text x="856" y="438" fill="#334155" font-family="Segoe UI, Arial, sans-serif" font-size="14">Puerto: 3000</text>
  <rect x="856" y="528" width="134" height="38" rx="8" fill="#3B82F6"/>
  <rect x="1000" y="528" width="126" height="38" rx="8" fill="#EF4444"/>
  <text x="891" y="552" fill="#FFFFFF" font-family="Segoe UI, Arial, sans-serif" font-size="13" font-weight="700">Acceder</text>
  <text x="1040" y="552" fill="#FFFFFF" font-family="Segoe UI, Arial, sans-serif" font-size="13" font-weight="700">Eliminar</text>
</svg>
